<svg width="520" height="128" viewBox="0 0 520 128" xmlns="http://www.w3.org/2000/svg" role="img" aria-label="Arqvexa">
  <defs>
    <linearGradient id="logow-bg" x1="0%" y1="0%" x2="100%" y2="100%">
      <stop offset="0%" stop-color="#081428"/>
      <stop offset="100%" stop-color="#16345c"/>
    </linearGradient>
    <linearGradient id="logow-accent" x1="0%" y1="0%" x2="100%" y2="0%">
      <stop offset="0%" stop-color="#e87935"/>
      <stop offset="100%" stop-color="#ffb07a"/>
    </linearGradient>
  </defs>
  <rect x="4" y="4" width="112" height="112" rx="28" fill="url(#logow-bg)"/>
  <path d="M60 28 L92 92 H78 L60 54 L42 92 H28 Z" fill="none" stroke="#fff" stroke-width="6" stroke-linejoin="round"/>
  <path d="M42 72 H78" fill="none" stroke="#fff" stroke-width="6" stroke-linecap="round"/>
  <path d="M78 44 V92" fill="none" stroke="url(#logow-accent)" stroke-width="4" stroke-linecap="round" stroke-dasharray="0 8"/>
  <circle cx="60" cy="34" r="7" fill="url(#logow-accent)"/>
  <circle cx="60" cy="34" r="3" fill="#fff" opacity="0.9"/>
  <path d="M34 98 H86" stroke="url(#logow-accent)" stroke-width="3.5" stroke-linecap="round"/>
  <circle cx="42" cy="98" r="2.2" fill="#ffb07a"/>
  <circle cx="60" cy="98" r="2.2" fill="#ffb07a"/>
  <circle cx="78" cy="98" r="2.2" fill="#ffb07a"/>
  <text x="136" y="58" font-family="Arial, Helvetica, sans-serif" font-size="40" font-weight="800" fill="#ffffff" letter-spacing="-1">Arq</text>
  <text x="228" y="58" font-family="Arial, Helvetica, sans-serif" font-size="40" font-weight="800" fill="url(#logow-accent)" letter-spacing="-1">vexa</text>
  <rect x="136" y="72" width="176" height="5" rx="2.5" fill="url(#logow-accent)"/>
  <text x="136" y="98" font-family="Arial, Helvetica, sans-serif" font-size="12" font-weight="700" fill="#aebbd0" letter-spacing="2.2">INTERIOR DESIGN | IT DEVELOPMENT</text>
</svg>
